{
	"asset":{
		"generator":"Khronos glTF Blender I/O v4.4.56",
		"version":"2.0"
	},
	"extensionsUsed":[
		"KHR_materials_transmission",
		"KHR_materials_emissive_strength",
		"KHR_materials_specular",
		"KHR_materials_ior"
	],
	"scene":0,
	"scenes":[
		{
			"name":"Scene",
			"nodes":[
				0
			]
		}
	],
	"nodes":[
		{
			"mesh":0,
			"name":"CornellBox-Sphere",
			"rotation":[
				0.7071068286895752,
				0,
				0,
				0.7071068286895752
			]
		}
	],
	"materials":[
		{
			"doubleSided":true,
			"extensions":{
				"KHR_materials_specular":{
					"specularColorFactor":[
						23.75,
						23.75,
						23.75
					]
				}
			},
			"name":"leftSphere.001",
			"pbrMetallicRoughness":{
				"baseColorFactor":[
					0.009999999776482582,
					0.009999999776482582,
					0.009999999776482582,
					1
				],
				"metallicFactor":0.009999999776482582,
				"roughnessFactor":0
			}
		},
		{
			"doubleSided":true,
			"extensions":{
				"KHR_materials_transmission":{
					"transmissionFactor":1
				},
				"KHR_materials_specular":{
					"specularFactor":1.633
				},
				"KHR_materials_ior":{
					"ior":1.5
				}
			},
			"name":"rightSphere.001",
			"pbrMetallicRoughness":{
				"baseColorFactor":[
					0.009999999776482582,
					0.009999999776482582,
					0.009999999776482582,
					1
				],
				"metallicFactor":0.009999999776482582,
				"roughnessFactor":0.0
			}
		},
		{
			"doubleSided":true,
			"extensions":{
				"KHR_materials_specular":{
					"specularFactor":0
				}
			},
			"name":"floor.003",
			"pbrMetallicRoughness":{
				"baseColorFactor":[
					0.7250000238418579,
					0.7099999785423279,
					0.6800000071525574,
					1
				],
				"metallicFactor":0,
				"roughnessFactor":0.8999999761581421
			}
		},
		{
			"doubleSided":true,
			"extensions":{
				"KHR_materials_specular":{
					"specularFactor":0
				}
			},
			"name":"ceiling.003",
			"pbrMetallicRoughness":{
				"baseColorFactor":[
					0.7250000238418579,
					0.7099999785423279,
					0.6800000071525574,
					1
				],
				"metallicFactor":0,
				"roughnessFactor":0.8999999761581421
			}
		},
		{
			"doubleSided":true,
			"extensions":{
				"KHR_materials_specular":{
					"specularFactor":0
				}
			},
			"name":"backWall.003",
			"pbrMetallicRoughness":{
				"baseColorFactor":[
					0.7250000238418579,
					0.7099999785423279,
					0.6800000071525574,
					1
				],
				"metallicFactor":0,
				"roughnessFactor":0.8999999761581421
			}
		},
		{
			"doubleSided":true,
			"extensions":{
				"KHR_materials_specular":{
					"specularFactor":0
				}
			},
			"name":"rightWall.003",
			"pbrMetallicRoughness":{
				"baseColorFactor":[
					0.16099999845027924,
					0.13300000131130219,
					0.4269999861717224,
					1
				],
				"metallicFactor":0,
				"roughnessFactor":0.8999999761581421
			}
		},
		{
			"doubleSided":true,
			"extensions":{
				"KHR_materials_specular":{
					"specularFactor":0
				}
			},
			"name":"leftWall.003",
			"pbrMetallicRoughness":{
				"baseColorFactor":[
					0.6299999952316284,
					0.06499999761581421,
					0.05000000074505806,
					1
				],
				"metallicFactor":0,
				"roughnessFactor":0.8999999761581421
			}
		},
		{
			"doubleSided":true,
			"emissiveFactor":[
				1,
				1,
				1
			],
			"extensions":{
				"KHR_materials_transmission":{
					"transmissionFactor":1
				},
				"KHR_materials_emissive_strength":{
					"emissiveStrength":10
				},
				"KHR_materials_specular":{
					"specularFactor":0
				}
			},
			"name":"light.003",
			"pbrMetallicRoughness":{
				"baseColorFactor":[
					0.7799999713897705,
					0.7799999713897705,
					0.7799999713897705,
					1
				],
				"metallicFactor":0,
				"roughnessFactor":0.8999999761581421
			}
		}
	],
	"meshes":[
		{
			"name":"CornellBox-Sphere",
			"primitives":[
				{
					"attributes":{
						"POSITION":0,
						"NORMAL":1,
						"TEXCOORD_0":2
					},
					"indices":3,
					"material":0
				},
				{
					"attributes":{
						"POSITION":4,
						"NORMAL":5,
						"TEXCOORD_0":6
					},
					"indices":3,
					"material":1
				},
				{
					"attributes":{
						"POSITION":7,
						"NORMAL":8,
						"TEXCOORD_0":9
					},
					"indices":10,
					"material":2
				},
				{
					"attributes":{
						"POSITION":11,
						"NORMAL":12,
						"TEXCOORD_0":13
					},
					"indices":10,
					"material":3
				},
				{
					"attributes":{
						"POSITION":14,
						"NORMAL":15,
						"TEXCOORD_0":16
					},
					"indices":10,
					"material":4
				},
				{
					"attributes":{
						"POSITION":17,
						"NORMAL":18,
						"TEXCOORD_0":19
					},
					"indices":10,
					"material":5
				},
				{
					"attributes":{
						"POSITION":20,
						"NORMAL":21,
						"TEXCOORD_0":22
					},
					"indices":10,
					"material":6
				},
				{
					"attributes":{
						"POSITION":23,
						"NORMAL":24,
						"TEXCOORD_0":25
					},
					"indices":10,
					"material":7
				}
			]
		}
	],
	"accessors":[
		{
			"bufferView":0,
			"componentType":5126,
			"count":628,
			"max":[
				-0.09780000150203705,
				0.04490000009536743,
				-0.005799999926239252
			],
			"min":[
				-0.7450000047683716,
				-0.6049000024795532,
				-0.6583999991416931
			],
			"type":"VEC3"
		},
		{
			"bufferView":1,
			"componentType":5126,
			"count":628,
			"type":"VEC3"
		},
		{
			"bufferView":2,
			"componentType":5126,
			"count":628,
			"type":"VEC2"
		},
		{
			"bufferView":3,
			"componentType":5123,
			"count":3264,
			"type":"SCALAR"
		},
		{
			"bufferView":4,
			"componentType":5126,
			"count":628,
			"max":[
				0.7694000005722046,
				0.70169997215271,
				-0.005799999926239252
			],
			"min":[
				0.12229999899864197,
				0.05180000141263008,
				-0.6583999991416931
			],
			"type":"VEC3"
		},
		{
			"bufferView":5,
			"componentType":5126,
			"count":628,
			"type":"VEC3"
		},
		{
			"bufferView":6,
			"componentType":5126,
			"count":628,
			"type":"VEC2"
		},
		{
			"bufferView":7,
			"componentType":5126,
			"count":4,
			"max":[
				1,
				0.9900000095367432,
				0
			],
			"min":[
				-1.0099999904632568,
				-1.0399999618530273,
				0
			],
			"type":"VEC3"
		},
		{
			"bufferView":8,
			"componentType":5126,
			"count":4,
			"type":"VEC3"
		},
		{
			"bufferView":9,
			"componentType":5126,
			"count":4,
			"type":"VEC2"
		},
		{
			"bufferView":10,
			"componentType":5123,
			"count":6,
			"type":"SCALAR"
		},
		{
			"bufferView":11,
			"componentType":5126,
			"count":4,
			"max":[
				1,
				0.9900000095367432,
				-1.590000033378601
			],
			"min":[
				-1.0199999809265137,
				-1.0399999618530273,
				-1.590000033378601
			],
			"type":"VEC3"
		},
		{
			"bufferView":12,
			"componentType":5126,
			"count":4,
			"type":"VEC3"
		},
		{
			"bufferView":13,
			"componentType":5126,
			"count":4,
			"type":"VEC2"
		},
		{
			"bufferView":14,
			"componentType":5126,
			"count":4,
			"max":[
				1,
				-1.0399999618530273,
				0
			],
			"min":[
				-1.0199999809265137,
				-1.0399999618530273,
				-1.590000033378601
			],
			"type":"VEC3"
		},
		{
			"bufferView":15,
			"componentType":5126,
			"count":4,
			"type":"VEC3"
		},
		{
			"bufferView":16,
			"componentType":5126,
			"count":4,
			"type":"VEC2"
		},
		{
			"bufferView":17,
			"componentType":5126,
			"count":4,
			"max":[
				1,
				0.9900000095367432,
				0
			],
			"min":[
				1,
				-1.0399999618530273,
				-1.590000033378601
			],
			"type":"VEC3"
		},
		{
			"bufferView":18,
			"componentType":5126,
			"count":4,
			"type":"VEC3"
		},
		{
			"bufferView":19,
			"componentType":5126,
			"count":4,
			"type":"VEC2"
		},
		{
			"bufferView":20,
			"componentType":5126,
			"count":4,
			"max":[
				-0.9900000095367432,
				0.9900000095367432,
				0
			],
			"min":[
				-1.0199999809265137,
				-1.0399999618530273,
				-1.590000033378601
			],
			"type":"VEC3"
		},
		{
			"bufferView":21,
			"componentType":5126,
			"count":4,
			"type":"VEC3"
		},
		{
			"bufferView":22,
			"componentType":5126,
			"count":4,
			"type":"VEC2"
		},
		{
			"bufferView":23,
			"componentType":5126,
			"count":4,
			"max":[
				0.23000000417232513,
				0.1599999964237213,
				-1.5800000429153442
			],
			"min":[
				-0.23999999463558197,
				-0.2199999988079071,
				-1.5800000429153442
			],
			"type":"VEC3"
		},
		{
			"bufferView":24,
			"componentType":5126,
			"count":4,
			"type":"VEC3"
		},
		{
			"bufferView":25,
			"componentType":5126,
			"count":4,
			"type":"VEC2"
		}
	],
	"bufferViews":[
		{
			"buffer":0,
			"byteLength":7536,
			"byteOffset":0,
			"target":34962
		},
		{
			"buffer":0,
			"byteLength":7536,
			"byteOffset":7536,
			"target":34962
		},
		{
			"buffer":0,
			"byteLength":5024,
			"byteOffset":15072,
			"target":34962
		},
		{
			"buffer":0,
			"byteLength":6528,
			"byteOffset":20096,
			"target":34963
		},
		{
			"buffer":0,
			"byteLength":7536,
			"byteOffset":26624,
			"target":34962
		},
		{
			"buffer":0,
			"byteLength":7536,
			"byteOffset":34160,
			"target":34962
		},
		{
			"buffer":0,
			"byteLength":5024,
			"byteOffset":41696,
			"target":34962
		},
		{
			"buffer":0,
			"byteLength":48,
			"byteOffset":46720,
			"target":34962
		},
		{
			"buffer":0,
			"byteLength":48,
			"byteOffset":46768,
			"target":34962
		},
		{
			"buffer":0,
			"byteLength":32,
			"byteOffset":46816,
			"target":34962
		},
		{
			"buffer":0,
			"byteLength":12,
			"byteOffset":46848,
			"target":34963
		},
		{
			"buffer":0,
			"byteLength":48,
			"byteOffset":46860,
			"target":34962
		},
		{
			"buffer":0,
			"byteLength":48,
			"byteOffset":46908,
			"target":34962
		},
		{
			"buffer":0,
			"byteLength":32,
			"byteOffset":46956,
			"target":34962
		},
		{
			"buffer":0,
			"byteLength":48,
			"byteOffset":46988,
			"target":34962
		},
		{
			"buffer":0,
			"byteLength":48,
			"byteOffset":47036,
			"target":34962
		},
		{
			"buffer":0,
			"byteLength":32,
			"byteOffset":47084,
			"target":34962
		},
		{
			"buffer":0,
			"byteLength":48,
			"byteOffset":47116,
			"target":34962
		},
		{
			"buffer":0,
			"byteLength":48,
			"byteOffset":47164,
			"target":34962
		},
		{
			"buffer":0,
			"byteLength":32,
			"byteOffset":47212,
			"target":34962
		},
		{
			"buffer":0,
			"byteLength":48,
			"byteOffset":47244,
			"target":34962
		},
		{
			"buffer":0,
			"byteLength":48,
			"byteOffset":47292,
			"target":34962
		},
		{
			"buffer":0,
			"byteLength":32,
			"byteOffset":47340,
			"target":34962
		},
		{
			"buffer":0,
			"byteLength":48,
			"byteOffset":47372,
			"target":34962
		},
		{
			"buffer":0,
			"byteLength":48,
			"byteOffset":47420,
			"target":34962
		},
		{
			"buffer":0,
			"byteLength":32,
			"byteOffset":47468,
			"target":34962
		}
	],
	"buffers":[
		{
			"byteLength":47500,
			"uri":"CornellBoxSpheres.bin"
		}
	]
}
